# File produced by Open Asset Import Library (http://www.assimp.sf.net)
# (assimp v3.1.243586452)

mtllib B06.mtl

# vertex positions
v 0.500000 0.201905 -0.500000
v 0.270598 0.042939 -0.270598
v 0.000000 0.042939 -0.382683
v 0.000000 0.201905 -0.707107
v -0.270598 0.042939 -0.270598
v -0.500000 0.201905 -0.500000
v -0.382684 0.042939 0.000000
v -0.707107 0.201905 0.000000
v -0.270598 0.042939 0.270598
v -0.500000 0.201905 0.500000
v 0.000000 0.042939 0.382683
v 0.000000 0.201905 0.707107
v 0.270598 0.042939 0.270598
v 0.500000 0.201905 0.500000
v 0.382684 0.042939 0.000000
v 0.707107 0.201905 0.000000
v 0.653281 0.439816 -0.653281
v 0.000000 0.439816 -0.923879
v -0.653281 0.439816 -0.653281
v -0.923879 0.439816 0.000000
v -0.653281 0.439816 0.653281
v 0.000000 0.439816 0.923879
v 0.653281 0.439816 0.653281
v 0.923879 0.439816 0.000000
v 0.549300 0.720451 -0.549300
v 0.506289 0.496202 -0.506290
v 0.000000 0.496202 -0.716001
v 0.000000 0.720450 -0.776828
v -0.506289 0.496202 -0.506289
v -0.549300 0.720451 -0.549300
v -0.716001 0.496202 0.000000
v -0.776828 0.720451 -0.000000
v -0.506289 0.496202 0.506289
v -0.549300 0.720451 0.549300
v 0.000000 0.496202 0.716002
v 0.000000 0.720450 0.776828
v 0.506289 0.496202 0.506289
v 0.549300 0.720450 0.549300
v 0.716002 0.496202 0.000000
v 0.776828 0.720450 0.000000
v 0.506289 0.944699 -0.506289
v 0.000000 0.944699 -0.716001
v -0.506290 0.944699 -0.506289
v -0.716002 0.944699 -0.000000
v -0.506289 0.944699 0.506289
v 0.000000 0.944699 0.716001
v 0.506289 0.944699 0.506290
v 0.716002 0.944699 -0.000000
v 0.500000 1.238996 -0.500000
v 0.653281 1.001085 -0.653281
v 0.000000 1.001085 -0.923879
v 0.000000 1.238996 -0.707107
v -0.653281 1.001085 -0.653281
v -0.500000 1.238996 -0.500000
v -0.923879 1.001085 0.000000
v -0.707107 1.238996 0.000000
v -0.653281 1.001085 0.653281
v -0.500000 1.238996 0.500000
v 0.000000 1.001085 0.923879
v 0.000000 1.238996 0.707107
v 0.653281 1.001085 0.653281
v 0.500000 1.238996 0.500000
v 0.923879 1.001085 0.000000
v 0.707107 1.238996 0.000000
v 0.270598 1.397962 -0.270598
v 0.000000 1.397962 -0.382683
v -0.270598 1.397962 -0.270598
v -0.382684 1.397962 0.000000
v -0.270598 1.397962 0.270598
v 0.000000 1.397962 0.382683
v 0.270598 1.397962 0.270598
v 0.382684 1.397962 0.000000
v 0.000000 -0.012883 0.000000
v 0.000000 1.453784 0.000000
v 0.579785 0.468009 -0.579786
v 0.000000 0.468009 -0.819940
v -0.579786 0.468009 -0.579785
v -0.819940 0.468009 0.000000
v -0.579786 0.468009 0.579785
v 0.000000 0.468009 0.819940
v 0.579786 0.468009 0.579785
v 0.819940 0.468009 0.000000
v 0.000000 0.972892 -0.819940
v 0.579786 0.972892 -0.579785
v -0.579786 0.972892 -0.579785
v -0.819940 0.972892 -0.000000
v -0.579786 0.972892 0.579785
v 0.000000 0.972892 0.819940
v 0.579786 0.972892 0.579786
v 0.819940 0.972892 -0.000000

# UV coordinates
vt 0.000000 0.250000
vt 0.000000 0.125000
vt 0.125000 0.125000
vt 0.125000 0.250000
vt 0.250000 0.125000
vt 0.250000 0.250000
vt 0.375000 0.125000
vt 0.375000 0.250000
vt 0.500000 0.125000
vt 0.500000 0.250000
vt 0.625000 0.125000
vt 0.625000 0.250000
vt 0.750000 0.125000
vt 0.750000 0.250000
vt 0.875000 0.125000
vt 0.875000 0.250000
vt 1.000000 0.125000
vt 1.000000 0.250000
vt 0.000000 0.375000
vt 0.125000 0.375000
vt 0.250000 0.375000
vt 0.375000 0.375000
vt 0.500000 0.375000
vt 0.625000 0.375000
vt 0.750000 0.375000
vt 0.875000 0.375000
vt 1.000000 0.375000
vt 0.000000 0.500000
vt 0.125000 0.500000
vt 0.250000 0.500000
vt 0.375000 0.500000
vt 0.500000 0.500000
vt 0.625000 0.500000
vt 0.750000 0.500000
vt 0.875000 0.500000
vt 1.000000 0.500000
vt 0.000000 0.625000
vt 0.125000 0.625000
vt 0.250000 0.625000
vt 0.375000 0.625000
vt 0.500000 0.625000
vt 0.625000 0.625000
vt 0.750000 0.625000
vt 0.875000 0.625000
vt 1.000000 0.625000
vt 0.000000 0.750000
vt 0.125000 0.750000
vt 0.250000 0.750000
vt 0.375000 0.750000
vt 0.500000 0.750000
vt 0.625000 0.750000
vt 0.750000 0.750000
vt 0.875000 0.750000
vt 1.000000 0.750000
vt 0.000000 0.875000
vt 0.125000 0.875000
vt 0.250000 0.875000
vt 0.375000 0.875000
vt 0.500000 0.875000
vt 0.625000 0.875000
vt 0.750000 0.875000
vt 0.875000 0.875000
vt 1.000000 0.875000
vt 0.062500 0.000000
vt 0.187500 0.000000
vt 0.312500 0.000000
vt 0.437500 0.000000
vt 0.562500 0.000000
vt 0.687500 0.000000
vt 0.812500 0.000000
vt 0.937500 0.000000
vt 0.062500 1.000000
vt 0.187500 1.000000
vt 0.312500 1.000000
vt 0.437500 1.000000
vt 0.562500 1.000000
vt 0.687500 1.000000
vt 0.812500 1.000000
vt 0.937500 1.000000

# vertex normals
vn 0.179306 -0.883438 -0.432882
vn 0.179306 -0.883438 -0.432882
vn -0.179306 -0.883438 -0.432882
vn -0.179306 -0.883438 -0.432882
vn -0.179306 -0.883438 -0.432882
vn -0.432882 -0.883438 -0.179306
vn -0.432882 -0.883438 -0.179306
vn -0.432882 -0.883438 -0.179306
vn -0.432882 -0.883438 -0.179306
vn -0.432882 -0.883438 0.179306
vn -0.432882 -0.883438 0.179306
vn -0.432882 -0.883438 0.179306
vn -0.432882 -0.883438 0.179306
vn -0.179306 -0.883438 0.432882
vn -0.179306 -0.883438 0.432882
vn -0.179306 -0.883438 0.432882
vn 0.179306 -0.883438 0.432882
vn 0.179306 -0.883438 0.432882
vn 0.179306 -0.883438 0.432882
vn 0.432882 -0.883438 0.179306
vn 0.432882 -0.883438 0.179306
vn 0.432882 -0.883438 0.179306
vn 0.432882 -0.883438 -0.179306
vn 0.432882 -0.883438 -0.179306
vn 0.432882 -0.883438 -0.179306
vn 0.432882 -0.883438 -0.179306
vn 0.292764 -0.643997 -0.706794
vn 0.292764 -0.643997 -0.706794
vn 0.292764 -0.643997 -0.706794
vn -0.292764 -0.643997 -0.706794
vn -0.292764 -0.643997 -0.706794
vn -0.292764 -0.643997 -0.706794
vn -0.706794 -0.643997 -0.292764
vn -0.706794 -0.643997 -0.292764
vn -0.706794 -0.643997 -0.292764
vn -0.706794 -0.643997 0.292764
vn -0.706794 -0.643997 0.292764
vn -0.292764 -0.643997 0.706794
vn -0.292764 -0.643997 0.706794
vn 0.292764 -0.643997 0.706794
vn 0.292764 -0.643997 0.706794
vn 0.706794 -0.643997 0.292764
vn 0.706794 -0.643997 0.292764
vn 0.706794 -0.643997 0.292764
vn 0.706794 -0.643997 -0.292764
vn 0.706794 -0.643997 -0.292764
vn 0.371205 -0.243081 -0.896169
vn 0.371205 -0.243081 -0.896169
vn 0.371205 -0.243081 -0.896169
vn 0.371205 -0.243081 -0.896169
vn -0.371205 -0.243081 -0.896169
vn -0.371205 -0.243081 -0.896169
vn -0.371205 -0.243081 -0.896169
vn -0.371205 -0.243081 -0.896169
vn -0.896169 -0.243082 -0.371205
vn -0.896169 -0.243082 -0.371205
vn -0.896169 -0.243082 -0.371205
vn -0.896169 -0.243082 -0.371205
vn -0.896169 -0.243081 0.371205
vn -0.896169 -0.243080 0.371205
vn -0.896169 -0.243081 0.371205
vn -0.896169 -0.243080 0.371205
vn -0.371205 -0.243081 0.896169
vn -0.371205 -0.243081 0.896169
vn -0.371205 -0.243081 0.896169
vn 0.371205 -0.243081 0.896169
vn 0.371205 -0.243081 0.896169
vn 0.371205 -0.243081 0.896169
vn 0.896169 -0.243081 0.371205
vn 0.896169 -0.243081 0.371205
vn 0.896169 -0.243081 0.371205
vn 0.896169 -0.243081 -0.371206
vn 0.896169 -0.243081 -0.371206
vn 0.896168 -0.243081 -0.371206
vn 0.896169 -0.243081 -0.371206
vn 0.371205 0.243081 -0.896169
vn 0.371205 0.243081 -0.896169
vn 0.371205 0.243081 -0.896169
vn 0.371205 0.243081 -0.896169
vn -0.371205 0.243081 -0.896169
vn -0.371205 0.243081 -0.896169
vn -0.371205 0.243081 -0.896169
vn -0.896169 0.243081 -0.371205
vn -0.896169 0.243081 -0.371205
vn -0.896169 0.243080 0.371205
vn -0.896169 0.243080 0.371205
vn -0.896169 0.243080 0.371205
vn -0.896169 0.243080 0.371205
vn -0.371205 0.243081 0.896169
vn -0.371205 0.243081 0.896169
vn -0.371205 0.243081 0.896169
vn -0.371205 0.243081 0.896169
vn 0.371205 0.243081 0.896169
vn 0.371205 0.243081 0.896169
vn 0.371205 0.243081 0.896169
vn 0.371205 0.243081 0.896169
vn 0.896169 0.243081 0.371205
vn 0.896169 0.243081 0.371205
vn 0.896169 0.243081 0.371205
vn 0.896169 0.243081 0.371205
vn 0.896169 0.243081 -0.371205
vn 0.896169 0.243081 -0.371205
vn 0.896169 0.243081 -0.371205
vn 0.896169 0.243081 -0.371205
vn 0.292764 0.643997 -0.706794
vn 0.292764 0.643997 -0.706794
vn -0.292764 0.643997 -0.706794
vn -0.292764 0.643997 -0.706794
vn -0.706794 0.643997 -0.292764
vn -0.706794 0.643997 0.292764
vn -0.292764 0.643997 0.706794
vn -0.292764 0.643997 0.706794
vn 0.292764 0.643997 0.706794
vn 0.706794 0.643997 0.292763
vn 0.706794 0.643997 0.292764
vn 0.706794 0.643997 0.292763
vn 0.706794 0.643997 -0.292764
vn 0.179306 0.883438 -0.432882
vn 0.179306 0.883438 -0.432882
vn 0.179306 0.883438 -0.432882
vn 0.179306 0.883438 -0.432882
vn -0.179306 0.883438 -0.432882
vn -0.179306 0.883438 -0.432882
vn -0.179306 0.883438 -0.432882
vn -0.179306 0.883438 -0.432882
vn -0.432882 0.883438 -0.179306
vn -0.432882 0.883438 -0.179306
vn -0.432882 0.883438 -0.179306
vn -0.432882 0.883438 0.179306
vn -0.432882 0.883438 0.179306
vn -0.432882 0.883438 0.179306
vn -0.432882 0.883438 0.179306
vn -0.179306 0.883438 0.432882
vn -0.179306 0.883438 0.432882
vn -0.179306 0.883438 0.432882
vn -0.179306 0.883438 0.432882
vn 0.179306 0.883438 0.432882
vn 0.179306 0.883438 0.432882
vn 0.179306 0.883438 0.432882
vn 0.432882 0.883438 0.179306
vn 0.432882 0.883438 0.179306
vn 0.432882 0.883438 0.179306
vn 0.432882 0.883438 -0.179306
vn 0.432882 0.883438 -0.179306
vn 0.432882 0.883438 -0.179306
vn 0.432882 0.883438 -0.179306
vn 0.059682 -0.987764 -0.144084
vn 0.059682 -0.987764 -0.144084
vn 0.059682 -0.987764 -0.144084
vn -0.059682 -0.987764 -0.144084
vn -0.059682 -0.987764 -0.144084
vn -0.059682 -0.987764 -0.144084
vn -0.144084 -0.987764 -0.059682
vn -0.144084 -0.987764 -0.059682
vn -0.144084 -0.987764 -0.059682
vn -0.144084 -0.987764 0.059682
vn -0.144084 -0.987764 0.059682
vn -0.059682 -0.987764 0.144084
vn -0.059682 -0.987764 0.144084
vn 0.059682 -0.987764 0.144084
vn 0.059682 -0.987764 0.144084
vn 0.144084 -0.987764 0.059682
vn 0.144084 -0.987764 0.059682
vn 0.144084 -0.987764 0.059682
vn 0.144084 -0.987764 -0.059682
vn 0.144084 -0.987764 -0.059682
vn 0.059682 0.987764 -0.144084
vn 0.059682 0.987764 -0.144084
vn 0.059682 0.987764 -0.144084
vn -0.059682 0.987764 -0.144084
vn -0.059682 0.987764 -0.144084
vn -0.059682 0.987764 -0.144084
vn -0.144084 0.987764 -0.059681
vn -0.144084 0.987764 -0.059681
vn -0.144084 0.987764 -0.059681
vn -0.144084 0.987764 0.059682
vn -0.144084 0.987764 0.059682
vn -0.144084 0.987764 0.059682
vn -0.059682 0.987764 0.144084
vn -0.059682 0.987764 0.144084
vn -0.059682 0.987764 0.144084
vn 0.059682 0.987764 0.144084
vn 0.059682 0.987764 0.144084
vn 0.059682 0.987764 0.144084
vn 0.144084 0.987764 0.059681
vn 0.144084 0.987764 0.059681
vn 0.144084 0.987764 0.059681
vn 0.144084 0.987764 -0.059682
vn 0.144084 0.987764 -0.059682
vn 0.144084 0.987764 -0.059682
vn 0.185110 0.965126 -0.185110
vn 0.185110 0.965126 -0.185110
vn 0.000000 0.965126 -0.261785
vn 0.000000 0.965126 -0.261785
vn 0.185110 0.965126 -0.185110
vn 0.000000 0.965126 -0.261785
vn -0.185110 0.965126 -0.185110
vn -0.185110 0.965126 -0.185110
vn -0.185110 0.965126 -0.185110
vn -0.261785 0.965126 -0.000000
vn -0.261785 0.965126 -0.000000
vn -0.261785 0.965126 0.000000
vn -0.185110 0.965126 0.185110
vn -0.185110 0.965126 0.185110
vn -0.185110 0.965126 0.185110
vn -0.000000 0.965126 0.261785
vn 0.000000 0.965126 0.261785
vn 0.000000 0.965126 0.261785
vn 0.185110 0.965126 0.185110
vn 0.185110 0.965126 0.185110
vn 0.185110 0.965126 0.185110
vn 0.261785 0.965126 -0.000000
vn 0.261785 0.965126 -0.000000
vn 0.261786 0.965126 -0.000000
vn 0.000000 -0.965126 -0.261785
vn 0.000000 -0.965126 -0.261784
vn 0.185111 -0.965126 -0.185110
vn 0.185110 -0.965126 -0.185110
vn -0.000000 -0.965126 -0.261785
vn 0.185110 -0.965126 -0.185110
vn -0.185110 -0.965126 -0.185109
vn -0.185110 -0.965126 -0.185109
vn -0.185110 -0.965126 -0.185110
vn -0.261785 -0.965126 0.000000
vn -0.261785 -0.965126 0.000000
vn -0.261785 -0.965126 0.000000
vn -0.185110 -0.965126 0.185110
vn -0.185110 -0.965126 0.185110
vn -0.185110 -0.965126 0.185110
vn -0.000000 -0.965126 0.261786
vn 0.000000 -0.965126 0.261786
vn -0.000000 -0.965126 0.261785
vn 0.185110 -0.965126 0.185110
vn 0.185111 -0.965126 0.185111
vn 0.185110 -0.965126 0.185110
vn 0.261786 -0.965126 -0.000000
vn 0.261786 -0.965126 0.000000
vn 0.261785 -0.965126 -0.000000

# Mesh
g pSphere1
usemtl phong2
f 1/1/1 2/2/2 3/3/2
f 3/3/2 4/4/1 1/1/1
f 4/4/3 3/3/4 5/5/5
f 5/5/5 6/6/3 4/4/3
f 6/6/6 5/5/7 7/7/8
f 7/7/8 8/8/9 6/6/6
f 8/8/10 7/7/11 9/9/12
f 9/9/12 10/10/13 8/8/10
f 10/10/14 9/9/15 11/11/16
f 11/11/16 12/12/14 10/10/14
f 12/12/17 11/11/18 13/13/19
f 13/13/19 14/14/17 12/12/17
f 14/14/20 13/13/21 15/15/22
f 15/15/22 16/16/20 14/14/20
f 16/16/23 15/15/24 2/17/25
f 2/17/25 1/18/26 16/16/23
f 17/19/27 1/1/28 4/4/28
f 4/4/28 18/20/29 17/19/27
f 18/20/30 4/4/31 6/6/31
f 6/6/31 19/21/32 18/20/30
f 19/21/33 6/6/34 8/8/34
f 8/8/34 20/22/35 19/21/33
f 20/22/36 8/8/36 10/10/36
f 10/10/36 21/23/37 20/22/36
f 21/23/38 10/10/39 12/12/39
f 12/12/39 22/24/38 21/23/38
f 22/24/40 12/12/41 14/14/41
f 14/14/41 23/25/40 22/24/40
f 23/25/42 14/14/43 16/16/43
f 16/16/43 24/26/44 23/25/42
f 24/26/45 16/16/45 1/18/45
f 1/18/45 17/27/46 24/26/45
f 25/28/47 26/19/48 27/20/49
f 27/20/49 28/29/50 25/28/47
f 28/29/51 27/20/52 29/21/53
f 29/21/53 30/30/54 28/29/51
f 30/30/55 29/21/56 31/22/57
f 31/22/57 32/31/58 30/30/55
f 32/31/59 31/22/60 33/23/61
f 33/23/61 34/32/62 32/31/59
f 34/32/63 33/23/64 35/24/65
f 35/24/65 36/33/65 34/32/63
f 36/33/66 35/24/67 37/25/66
f 37/25/66 38/34/68 36/33/66
f 38/34/69 37/25/70 39/26/71
f 39/26/71 40/35/69 38/34/69
f 40/35/72 39/26/73 26/27/74
f 26/27/74 25/36/75 40/35/72
f 41/37/76 25/28/77 28/29/78
f 28/29/78 42/38/79 41/37/76
f 42/38/80 28/29/81 30/30/82
f 30/30/82 43/39/80 42/38/80
f 43/39/83 30/30/84 32/31/84
f 32/31/84 44/40/83 43/39/83
f 44/40/85 32/31/86 34/32/87
f 34/32/87 45/41/88 44/40/85
f 45/41/89 34/32/90 36/33/91
f 36/33/91 46/42/92 45/41/89
f 46/42/93 36/33/94 38/34/95
f 38/34/95 47/43/96 46/42/93
f 47/43/97 38/34/98 40/35/99
f 40/35/99 48/44/100 47/43/97
f 48/44/101 40/35/102 25/36/103
f 25/36/103 41/45/104 48/44/101
f 49/46/105 50/37/105 51/38/106
f 51/38/106 52/47/105 49/46/105
f 52/47/107 51/38/108 53/39/107
f 53/39/107 54/48/107 52/47/107
f 54/48/109 53/39/109 55/40/109
f 55/40/109 56/49/109 54/48/109
f 56/49/110 55/40/110 57/41/110
f 57/41/110 58/50/110 56/49/110
f 58/50/111 57/41/112 59/42/112
f 59/42/112 60/51/111 58/50/111
f 60/51/113 59/42/113 61/43/113
f 61/43/113 62/52/113 60/51/113
f 62/52/114 61/43/115 63/44/116
f 63/44/116 64/53/114 62/52/114
f 64/53/117 63/44/117 50/45/117
f 50/45/117 49/54/117 64/53/117
f 65/55/118 49/46/119 52/47/120
f 52/47/120 66/56/121 65/55/118
f 66/56/122 52/47/123 54/48/124
f 54/48/124 67/57/125 66/56/122
f 67/57/126 54/48/127 56/49/126
f 56/49/126 68/58/128 67/57/126
f 68/58/129 56/49/130 58/50/131
f 58/50/131 69/59/132 68/58/129
f 69/59/133 58/50/134 60/51/135
f 60/51/135 70/60/136 69/59/133
f 70/60/137 60/51/138 62/52/138
f 62/52/138 71/61/139 70/60/137
f 71/61/140 62/52/141 64/53/141
f 64/53/141 72/62/142 71/61/140
f 72/62/143 64/53/144 49/54/145
f 49/54/145 65/63/146 72/62/143
f 3/3/147 2/2/148 73/64/149
f 5/5/150 3/3/151 73/65/152
f 7/7/153 5/5/154 73/66/155
f 9/9/156 7/7/156 73/67/157
f 11/11/158 9/9/159 73/68/158
f 13/13/160 11/11/161 73/69/161
f 15/15/162 13/13/163 73/70/164
f 2/17/165 15/15/165 73/71/166
f 65/55/167 66/56/168 74/72/169
f 66/56/170 67/57/171 74/73/172
f 67/57/173 68/58/174 74/74/175
f 68/58/176 69/59/177 74/75/178
f 69/59/179 70/60/180 74/76/181
f 70/60/182 71/61/183 74/77/184
f 71/61/185 72/62/186 74/78/187
f 72/62/188 65/63/189 74/79/190
f 75/19/191 17/19/192 18/20/193
f 18/20/193 76/20/194 75/19/191
f 26/19/195 75/19/191 76/20/194
f 76/20/194 27/20/196 26/19/195
f 76/20/194 18/20/193 19/21/197
f 19/21/197 77/21/198 76/20/194
f 27/20/196 76/20/194 77/21/198
f 77/21/198 29/21/199 27/20/196
f 77/21/198 19/21/197 20/22/200
f 20/22/200 78/22/201 77/21/198
f 29/21/199 77/21/198 78/22/201
f 78/22/201 31/22/202 29/21/199
f 78/22/201 20/22/200 21/23/203
f 21/23/203 79/23/204 78/22/201
f 31/22/202 78/22/201 79/23/204
f 79/23/204 33/23/205 31/22/202
f 79/23/204 21/23/203 22/24/206
f 22/24/206 80/24/207 79/23/204
f 33/23/205 79/23/204 80/24/207
f 80/24/207 35/24/208 33/23/205
f 80/24/207 22/24/206 23/25/209
f 23/25/209 81/25/210 80/24/207
f 35/24/208 80/24/207 81/25/210
f 81/25/210 37/25/211 35/24/208
f 81/25/210 23/25/209 24/26/212
f 24/26/212 82/26/213 81/25/210
f 37/25/211 81/25/210 82/26/213
f 82/26/213 39/26/214 37/25/211
f 82/26/213 24/26/212 17/27/192
f 17/27/192 75/27/191 82/26/213
f 39/26/214 82/26/213 75/27/191
f 75/27/191 26/27/195 39/26/214
f 83/38/215 51/38/216 50/37/217
f 50/37/217 84/37/218 83/38/215
f 42/38/219 83/38/215 84/37/218
f 84/37/218 41/37/220 42/38/219
f 85/39/221 53/39/222 51/38/216
f 51/38/216 83/38/215 85/39/221
f 43/39/223 85/39/221 83/38/215
f 83/38/215 42/38/219 43/39/223
f 86/40/224 55/40/225 53/39/222
f 53/39/222 85/39/221 86/40/224
f 44/40/226 86/40/224 85/39/221
f 85/39/221 43/39/223 44/40/226
f 87/41/227 57/41/228 55/40/225
f 55/40/225 86/40/224 87/41/227
f 45/41/229 87/41/227 86/40/224
f 86/40/224 44/40/226 45/41/229
f 88/42/230 59/42/231 57/41/228
f 57/41/228 87/41/227 88/42/230
f 46/42/232 88/42/230 87/41/227
f 87/41/227 45/41/229 46/42/232
f 89/43/233 61/43/234 59/42/231
f 59/42/231 88/42/230 89/43/233
f 47/43/235 89/43/233 88/42/230
f 88/42/230 46/42/232 47/43/235
f 90/44/236 63/44/237 61/43/234
f 61/43/234 89/43/233 90/44/236
f 48/44/238 90/44/236 89/43/233
f 89/43/233 47/43/235 48/44/238
f 84/45/218 50/45/217 63/44/237
f 63/44/237 90/44/236 84/45/218
f 41/45/220 84/45/218 90/44/236
f 90/44/236 48/44/238 41/45/220
